<svg width="64" height="65" viewBox="0 0 64 65" fill="none" xmlns="http://www.w3.org/2000/svg">
<rect x="0.5" y="1" width="63" height="63" rx="15.5" fill="#A842EB" fill-opacity="0.2"/>
<rect x="0.5" y="1" width="63" height="63" rx="15.5" fill="url(#paint0_linear_524_4640)" fill-opacity="0.25"/>
<rect x="0.5" y="1" width="63" height="63" rx="15.5" stroke="url(#paint1_linear_524_4640)"/>
<path fill-rule="evenodd" clip-rule="evenodd" d="M32.0013 18.417L31.8742 18.417C30.7562 18.4168 30.044 18.4166 29.4386 18.5789C27.7994 19.0181 26.519 20.2984 26.0798 21.9376C25.9644 22.3685 25.9311 22.8535 25.9217 23.5004H24.068C21.8278 23.5004 20.7077 23.5004 19.852 23.9363C19.0994 24.3198 18.4874 24.9317 18.1039 25.6844C17.668 26.54 17.668 27.6601 17.668 29.9004V30.1471C18.728 30.653 19.3334 30.9367 19.9249 31.1845C21.871 31.9999 23.8791 32.61 25.918 33.0146V31.167C25.918 30.7528 26.2538 30.417 26.668 30.417C27.0822 30.417 27.418 30.7528 27.418 31.167V33.2744C30.4566 33.7249 33.546 33.7249 36.5846 33.2744V31.167C36.5846 30.7528 36.9204 30.417 37.3346 30.417C37.7488 30.417 38.0846 30.7528 38.0846 31.167V33.0146C40.1235 32.61 42.1316 31.9999 44.0777 31.1845C44.6692 30.9367 45.2746 30.653 46.3346 30.1471V29.9004C46.3346 27.6601 46.3346 26.54 45.8987 25.6844C45.5152 24.9317 44.9032 24.3198 44.1506 23.9363C43.295 23.5004 42.1748 23.5004 39.9346 23.5004H38.0809C38.0715 22.8535 38.0382 22.3685 37.9228 21.9376C37.4836 20.2984 36.2032 19.0181 34.564 18.5789C33.9586 18.4166 33.2464 18.4168 32.1284 18.417L32.0013 18.417ZM36.5799 23.5004C36.571 22.9109 36.5455 22.593 36.4739 22.3259C36.1734 21.2043 35.2973 20.3283 34.1758 20.0278C33.7865 19.9235 33.2895 19.917 32.0013 19.917C30.7131 19.917 30.2161 19.9235 29.8268 20.0278C28.7053 20.3283 27.8292 21.2043 27.5287 22.3259C27.4571 22.593 27.4316 22.9109 27.4227 23.5004H36.5799ZM17.668 40.4337V31.8082C18.3633 32.1372 18.8578 32.3637 19.3452 32.568C21.4776 33.4615 23.681 34.1196 25.918 34.5424V35.8337C25.918 36.2479 26.2538 36.5837 26.668 36.5837C27.0822 36.5837 27.418 36.2479 27.418 35.8337V34.79C30.4582 35.2197 33.5444 35.2197 36.5846 34.79V35.8337C36.5846 36.2479 36.9204 36.5837 37.3346 36.5837C37.7488 36.5837 38.0846 36.2479 38.0846 35.8337V34.5424C40.3216 34.1196 42.525 33.4615 44.6574 32.568C45.1449 32.3637 45.6393 32.1372 46.3346 31.8082V40.4337C46.3346 42.6739 46.3346 43.794 45.8987 44.6497C45.5152 45.4023 44.9032 46.0142 44.1506 46.3977C43.295 46.8337 42.1748 46.8337 39.9346 46.8337H24.068C21.8278 46.8337 20.7077 46.8337 19.852 46.3977C19.0994 46.0142 18.4874 45.4023 18.1039 44.6497C17.668 43.794 17.668 42.6739 17.668 40.4337Z" fill="#C05FFF"/>
<defs>
<linearGradient id="paint0_linear_524_4640" x1="0.653061" y1="2.59524" x2="29.9911" y2="33.6283" gradientUnits="userSpaceOnUse">
<stop stop-color="white"/>
<stop offset="1" stop-color="white" stop-opacity="0"/>
</linearGradient>
<linearGradient id="paint1_linear_524_4640" x1="0" y1="0.5" x2="77.6569" y2="34.967" gradientUnits="userSpaceOnUse">
<stop stop-color="#F2F2F2" stop-opacity="0.1"/>
<stop offset="1" stop-color="#F2F2F2" stop-opacity="0.05"/>
</linearGradient>
</defs>
</svg>
