<svg width="33" height="33" viewBox="0 0 33 33" fill="none" xmlns="http://www.w3.org/2000/svg">
<path d="M21.1654 10.5002C21.1654 13.0775 19.076 15.1668 16.4987 15.1668C13.9214 15.1668 11.832 13.0775 11.832 10.5002C11.832 7.92283 13.9214 5.8335 16.4987 5.8335C19.076 5.8335 21.1654 7.92283 21.1654 10.5002Z" fill="#AB41FF"/>
<path d="M24.5 22.5002C24.5 25.0775 20.9183 27.1668 16.5 27.1668C12.0817 27.1668 8.5 25.0775 8.5 22.5002C8.5 19.9228 12.0817 17.8335 16.5 17.8335C20.9183 17.8335 24.5 19.9228 24.5 22.5002Z" fill="#AB41FF"/>
<path d="M9.99737 7.1665C10.234 7.1665 10.465 7.18972 10.688 7.23392C10.1446 8.19911 9.83463 9.31327 9.83463 10.4998C9.83463 11.6575 10.1297 12.7463 10.6488 13.695C10.4379 13.7343 10.2201 13.7549 9.99737 13.7549C8.11148 13.7549 6.58267 12.28 6.58267 10.4607C6.58267 8.64136 8.11148 7.1665 9.99737 7.1665Z" fill="#AB41FF"/>
<path d="M7.76442 25.8145C7.0072 24.9093 6.5013 23.7985 6.5013 22.4998C6.5013 21.2409 6.97673 20.1585 7.69567 19.2688C5.1561 19.4658 3.16797 20.8548 3.16797 22.539C3.16797 24.2391 5.19104 25.6383 7.76442 25.8145Z" fill="#AB41FF"/>
<path d="M23.1659 10.4998C23.1659 11.6575 22.8708 12.7463 22.3518 13.695C22.5626 13.7343 22.7804 13.7549 23.0032 13.7549C24.8891 13.7549 26.4179 12.28 26.4179 10.4607C26.4179 8.64136 24.8891 7.1665 23.0032 7.1665C22.7666 7.1665 22.5356 7.18972 22.3125 7.23392C22.8559 8.19911 23.1659 9.31327 23.1659 10.4998Z" fill="#AB41FF"/>
<path d="M25.2361 25.8145C27.8095 25.6383 29.8326 24.2391 29.8326 22.539C29.8326 20.8548 27.8444 19.4658 25.3049 19.2688C26.0238 20.1585 26.4992 21.2409 26.4992 22.4998C26.4992 23.7985 25.9933 24.9093 25.2361 25.8145Z" fill="#AB41FF"/>
</svg>
