<svg width="64" height="64" viewBox="0 0 64 64" fill="none" xmlns="http://www.w3.org/2000/svg">
<rect x="0.5" y="0.5" width="63" height="63" rx="15.5" fill="#8CE51D" fill-opacity="0.2"/>
<rect x="0.5" y="0.5" width="63" height="63" rx="15.5" fill="url(#paint0_linear_524_4623)" fill-opacity="0.25"/>
<rect x="0.5" y="0.5" width="63" height="63" rx="15.5" stroke="url(#paint1_linear_524_4623)"/>
<path fill-rule="evenodd" clip-rule="evenodd" d="M24.7513 21.9998C24.7513 20.5731 25.9079 19.4165 27.3346 19.4165H27.4416C28.6297 19.4165 29.6771 20.1958 30.0185 21.3338L30.9183 24.3332H26.2246C25.3534 23.918 24.7513 23.0292 24.7513 21.9998ZM23.9832 24.3332C23.5219 23.6718 23.2513 22.8674 23.2513 21.9998C23.2513 19.7447 25.0795 17.9165 27.3346 17.9165H27.4416C29.2921 17.9165 30.9235 19.1303 31.4552 20.9027L32.0013 22.7231L32.5474 20.9027C33.0791 19.1303 34.7105 17.9165 36.561 17.9165H36.668C38.9231 17.9165 40.7513 19.7447 40.7513 21.9998C40.7513 22.8674 40.4807 23.6718 40.0194 24.3332H43.3346C44.9915 24.3332 46.3346 25.6763 46.3346 27.3332C46.3346 28.99 44.9915 30.3332 43.3346 30.3332H20.668C19.0111 30.3332 17.668 28.99 17.668 27.3332C17.668 25.6763 19.0111 24.3332 20.668 24.3332H23.9832ZM37.7781 24.3332C38.6492 23.918 39.2513 23.0292 39.2513 21.9998C39.2513 20.5731 38.0947 19.4165 36.668 19.4165H36.561C35.3729 19.4165 34.3255 20.1958 33.9841 21.3338L33.0843 24.3332H37.7781ZM30.9759 32.6759C31.0013 32.7525 31.0013 32.8473 31.0013 33.0369V37.6665C31.0013 38.2188 31.449 38.6665 32.0013 38.6665C32.5536 38.6665 33.0013 38.2188 33.0013 37.6665V33.0369C33.0013 32.8473 33.0013 32.7525 33.0267 32.6759C33.0764 32.5259 33.194 32.4082 33.344 32.3585C33.4206 32.3332 33.5154 32.3332 33.705 32.3332H42.868C43.148 32.3332 43.288 32.3332 43.395 32.3877C43.489 32.4356 43.5655 32.5121 43.6135 32.6062C43.668 32.7131 43.668 32.8531 43.668 33.1332V39.9332C43.668 42.1734 43.668 43.2935 43.232 44.1491C42.8485 44.9018 42.2366 45.5137 41.4839 45.8972C40.6283 46.3332 39.5082 46.3332 37.268 46.3332H26.7346C24.4944 46.3332 23.3743 46.3332 22.5187 45.8972C21.766 45.5137 21.1541 44.9018 20.7706 44.1491C20.3346 43.2935 20.3346 42.1734 20.3346 39.9332V33.1332C20.3346 32.8531 20.3346 32.7131 20.3891 32.6062C20.4371 32.5121 20.5136 32.4356 20.6076 32.3877C20.7146 32.3332 20.8546 32.3332 21.1346 32.3332H30.2976C30.4872 32.3332 30.582 32.3332 30.6586 32.3585C30.8086 32.4082 30.9262 32.5259 30.9759 32.6759Z" fill="#9DFC24"/>
<defs>
<linearGradient id="paint0_linear_524_4623" x1="0.653061" y1="2.09524" x2="29.9911" y2="33.1283" gradientUnits="userSpaceOnUse">
<stop stop-color="white"/>
<stop offset="1" stop-color="white" stop-opacity="0"/>
</linearGradient>
<linearGradient id="paint1_linear_524_4623" x1="0" y1="0" x2="77.6569" y2="34.467" gradientUnits="userSpaceOnUse">
<stop stop-color="#F2F2F2" stop-opacity="0.1"/>
<stop offset="1" stop-color="#F2F2F2" stop-opacity="0.05"/>
</linearGradient>
</defs>
</svg>
