<svg width="28" height="28" viewBox="0 0 28 28" fill="none" xmlns="http://www.w3.org/2000/svg">
<path d="M19.3381 22.3997L14.7434 17.805L13.3403 19.2081C11.9038 20.6446 11.1856 21.3628 10.4137 21.1932C9.64173 21.0237 9.29059 20.0706 8.58832 18.1644L6.24612 11.807C4.84515 8.00441 4.14467 6.10309 5.12461 5.12314C6.10455 4.1432 8.00587 4.84369 11.8085 6.24466L18.1659 8.58685C20.0721 9.28913 21.0252 9.64026 21.1947 10.4122C21.3643 11.1842 20.646 11.9024 19.2096 13.3388L17.8065 14.7419L22.4012 19.3366C22.8769 19.8123 23.1148 20.0502 23.2247 20.3156C23.3713 20.6694 23.3713 21.0669 23.2247 21.4207C23.1148 21.6861 22.8769 21.924 22.4012 22.3997C21.9254 22.8755 21.6876 23.1133 21.4222 23.2233C21.0684 23.3698 20.6709 23.3698 20.317 23.2233C20.0517 23.1133 19.8138 22.8755 19.3381 22.3997Z" stroke="#F6F2F8" stroke-width="2.5" stroke-linecap="round" stroke-linejoin="round"/>
</svg>
