<svg width="28" height="28" viewBox="0 0 28 28" fill="none" xmlns="http://www.w3.org/2000/svg">
<path d="M19.9987 4.66683V5.66683H20.9987H24.4987C24.5429 5.66683 24.5853 5.68439 24.6165 5.71564C24.6478 5.7469 24.6654 5.78929 24.6654 5.8335V9.3335C24.6654 10.306 24.2791 11.2386 23.5914 11.9262C22.9038 12.6139 21.9712 13.0002 20.9987 13.0002H19.202H18.7555L18.4574 13.3327C17.5528 14.3419 16.3333 15.0151 14.9974 15.2427L14.1654 15.3845V16.2285V18.6668V19.6668H15.1654H16.332C16.9951 19.6668 17.631 19.9302 18.0998 20.3991C18.5686 20.8679 18.832 21.5038 18.832 22.1668V24.5002C18.832 24.5444 18.8145 24.5868 18.7832 24.618C18.752 24.6493 18.7096 24.6668 18.6654 24.6668H9.33203C9.28783 24.6668 9.24543 24.6493 9.21418 24.618C9.18292 24.5868 9.16536 24.5444 9.16536 24.5002V22.1668C9.16536 21.5038 9.42876 20.8679 9.8976 20.3991L9.19049 19.692L9.8976 20.3991C10.3664 19.9302 11.0023 19.6668 11.6654 19.6668H12.832H13.832V18.6668V16.2285V15.3845L13 15.2427C11.6641 15.0151 10.4445 14.3419 9.54001 13.3327L9.24194 13.0002H8.79536H6.9987C6.02624 13.0002 5.09361 12.6139 4.40597 11.9262C3.71834 11.2386 3.33203 10.306 3.33203 9.3335V5.8335C3.33203 5.78929 3.34959 5.7469 3.38085 5.71565C3.4121 5.68439 3.4545 5.66683 3.4987 5.66683H6.9987H7.9987V4.66683V3.50016C7.9987 3.45596 8.01626 3.41357 8.04751 3.38231C8.07877 3.35106 8.12116 3.3335 8.16536 3.3335H19.832C19.8762 3.3335 19.9186 3.35106 19.9499 3.38231C19.9811 3.41357 19.9987 3.45596 19.9987 3.50016V4.66683ZM4.66536 6.00016H3.66536V7.00016V9.3335C3.66536 10.2176 4.01655 11.0654 4.64167 11.6905C5.2668 12.3156 6.11464 12.6668 6.9987 12.6668H7.40703H8.8264L8.34869 11.3303C8.11943 10.6888 8.00107 10.013 7.9987 9.33183V7.00016V6.00016H6.9987H4.66536ZM17.4987 24.3335H18.4987V23.3335V22.1668C18.4987 21.5922 18.2704 21.0411 17.8641 20.6348C17.4578 20.2284 16.9067 20.0002 16.332 20.0002H11.6654C11.0907 20.0002 10.5396 20.2284 10.1333 20.6348L10.8404 21.3419L10.1333 20.6348C9.72697 21.0411 9.4987 21.5922 9.4987 22.1668V23.3335V24.3335H10.4987H17.4987ZM9.33203 3.66683H8.33203V4.66683V9.3335C8.33203 10.8364 8.92905 12.2777 9.99176 13.3404C11.0545 14.4031 12.4958 15.0002 13.9987 15.0002C15.5016 15.0002 16.9429 14.4031 18.0056 13.3404C19.0683 12.2777 19.6654 10.8364 19.6654 9.3335V4.66683V3.66683H18.6654H9.33203ZM19.6487 11.3303L19.171 12.6668H20.5904H20.9987C21.8828 12.6668 22.7306 12.3156 23.3557 11.6905C23.9808 11.0654 24.332 10.2176 24.332 9.3335V7.00016V6.00016H23.332H20.9987H19.9987V7.00016V9.33197C19.9963 10.0131 19.878 10.6889 19.6487 11.3303Z" fill="#F6F2F8" stroke="#F6F2F8" stroke-width="2"/>
</svg>
