<svg width="86" height="30" viewBox="0 0 86 30" fill="none" xmlns="http://www.w3.org/2000/svg">
<path d="M8.768 23.992C4.128 23.992 0.096 21.624 0 16.44L5.44 16.184C5.472 18.008 6.72 19.256 8.864 19.256C10.144 19.256 11.552 18.744 11.552 17.272C11.552 14.04 1.984 14.2 1.984 7.64C1.984 3.448 5.44 0.695999 10.208 0.695999C14.816 0.695999 18.368 3.352 18.432 7.992L12.992 8.248C12.96 6.392 11.808 5.432 10.08 5.432C8.928 5.432 7.52 6.008 7.52 7.448C7.52 10.744 17.152 10.424 17.152 16.76C17.152 21.112 13.568 23.992 8.768 23.992Z" fill="white"/>
<path d="M23.707 23.544H18.651L22.587 1.144H27.643L26.395 8.28H26.555C27.259 7.608 28.571 6.776 30.331 6.776C34.555 6.776 36.763 10.104 36.027 14.392L34.395 23.544H29.339L30.907 14.712C31.163 13.112 30.299 11.448 28.315 11.448C26.811 11.448 25.563 12.632 25.307 14.264L23.707 23.544Z" fill="white"/>
<path d="M46.8625 6.776C51.3105 6.776 54.1905 9.624 53.3585 14.392L51.7585 23.544H48.0145L47.5345 22.04H47.3745C46.5105 23.096 45.0385 23.992 42.8945 23.992C40.0465 23.992 37.6785 22.136 37.6785 19.128C37.6785 15.384 41.0705 13.624 44.6545 13.624H48.5585C48.8145 12.088 48.1105 10.968 46.6065 10.968C45.4865 10.968 44.7825 11.544 44.4625 12.472L39.5345 12.216C40.1425 9.4 42.6065 6.776 46.8625 6.776ZM44.6865 20.088C46.3505 20.088 47.5665 18.904 47.8545 17.464L48.0145 16.6H45.1025C44.1745 16.6 42.6705 17.048 42.6705 18.488C42.6705 19.384 43.3105 20.088 44.6865 20.088Z" fill="white"/>
<path d="M60.1415 23.544H55.0855L57.9335 7.224H61.6775L62.1575 8.728H62.3175C62.8295 8.024 64.1415 6.776 66.0295 6.776C66.7335 6.776 67.3735 6.904 67.9175 7.128L67.0215 12.28C66.4775 12.056 65.7415 11.96 65.1335 11.96C63.2775 11.96 61.9655 13.08 61.6135 15.096L60.1415 23.544Z" fill="white"/>
<path d="M71.2738 29.304H66.2178L70.0898 7.224H73.8337L74.3138 8.728H74.4737C75.3377 7.672 76.8737 6.776 78.9538 6.776C82.9857 6.776 85.5778 10.328 85.5778 14.296C85.5778 19.576 81.8337 23.992 77.0977 23.992C75.3698 23.992 73.7057 23.256 72.6817 22.072H72.5218L71.2738 29.304ZM76.6817 19.416C78.7298 19.416 80.5537 17.4 80.5537 14.84C80.5537 12.888 79.4018 11.352 77.5458 11.352C75.4978 11.352 73.6738 13.368 73.6738 15.928C73.6738 17.88 74.8257 19.416 76.6817 19.416Z" fill="white"/>
</svg>
