<svg width="33" height="33" viewBox="0 0 33 33" fill="none" xmlns="http://www.w3.org/2000/svg">
<path d="M20.8341 14.7518C19.5186 13.1778 18.8609 12.3908 18.1048 12.512C17.3486 12.6332 16.9949 13.5824 16.2875 15.4808L16.1044 15.9719C15.9034 16.5113 15.8029 16.7811 15.6073 16.9798C15.4117 17.1784 15.1432 17.2836 14.6062 17.4939L14.1173 17.6854C12.2276 18.4255 11.2827 18.7956 11.175 19.552C11.0672 20.3084 11.8679 20.9502 13.4693 22.2338L13.8836 22.5658C14.3387 22.9306 14.5662 23.113 14.6979 23.3626C14.8297 23.6122 14.8506 23.9009 14.8926 24.4782L14.9308 25.0037C15.0784 27.0352 15.1522 28.0509 15.8417 28.3972C16.5312 28.7434 17.3798 28.1909 19.077 27.0858L19.5161 26.8C19.9983 26.4859 20.2395 26.3289 20.5165 26.2845C20.7934 26.2401 21.0749 26.3133 21.6378 26.4598L22.1503 26.5931C24.1313 27.1085 25.1217 27.3662 25.6556 26.8238C26.1895 26.2814 25.9133 25.2981 25.3608 23.3316L25.2179 22.8228C25.0609 22.264 24.9824 21.9846 25.0218 21.7075C25.0613 21.4304 25.2143 21.187 25.5203 20.7003L25.7988 20.2571C26.8755 18.5442 27.4139 17.6877 27.0543 17.0062C26.6948 16.3247 25.6754 16.2696 23.6368 16.1592L23.1094 16.1307C22.5301 16.0993 22.2404 16.0837 21.9878 15.9568C21.7352 15.83 21.5483 15.6063 21.1745 15.1591L20.8341 14.7518Z" fill="#FFFF53"/>
<path d="M20.3359 7.38947L20.58 8.08523C20.848 8.84945 20.982 9.23157 21.2428 9.51305C21.5036 9.79452 21.8616 9.9435 22.5776 10.2415L23.2294 10.5127C25.749 11.5612 27.0089 12.0855 27.1526 13.1571C27.2124 13.6031 27.0623 14.021 26.7127 14.4881C26.5945 14.4561 26.4808 14.43 26.3739 14.4083C25.6724 14.2657 24.7801 14.2176 23.8706 14.1686L23.2176 14.1333C23.092 14.1265 22.9944 14.1211 22.9108 14.1157C22.8554 14.0509 22.7915 13.9746 22.7093 13.8761L22.2884 13.3726C21.7013 12.6697 21.1268 11.982 20.5925 11.5045C20.0228 10.9954 19.0704 10.3313 17.7883 10.5369C16.4927 10.7446 15.8015 11.6873 15.4287 12.3602C15.0832 12.9837 14.7725 13.818 14.4579 14.6627L14.2305 15.2731C14.1921 15.3762 14.1613 15.4588 14.1341 15.5299C14.063 15.5584 13.9803 15.5908 13.877 15.6313L13.2697 15.8691C12.4285 16.1983 11.5986 16.5231 10.9806 16.8787C10.3156 17.2613 9.38055 17.968 9.19513 19.2696C9.01148 20.5587 9.69805 21.4998 10.2177 22.0578C10.6051 22.4738 11.1255 22.9125 11.6812 23.3622C9.58973 23.9296 8.47726 24.1412 7.84499 23.4588C7.13312 22.6904 7.50145 21.2974 8.2381 18.5115L8.42868 17.7907C8.63802 16.999 8.74268 16.6032 8.69005 16.2107C8.63742 15.8181 8.43344 15.4734 8.0255 14.7838L7.65409 14.156C6.2185 11.7293 5.50071 10.516 5.98011 9.55055C6.4595 8.58513 7.8186 8.50697 10.5368 8.35066L11.24 8.31023C12.0124 8.26581 12.3987 8.2436 12.7354 8.06391C13.0722 7.88422 13.3214 7.56739 13.8199 6.93373L14.2737 6.35683C16.0277 4.12695 16.9047 3.01202 17.9128 3.18375C18.921 3.35548 19.3926 4.70014 20.3359 7.38947Z" fill="#FFFF53"/>
</svg>
