<svg width="1444" height="44" viewBox="0 0 1444 44" fill="none" xmlns="http://www.w3.org/2000/svg">
<path d="M0.695587 43.6284L0.680376 0.788353L9.52038 0.785214L26.8693 25.9391L26.8604 0.779058L36.7204 0.775557L36.7356 43.6156L27.8956 43.6187L10.5467 18.4649L10.5556 43.6249L0.695587 43.6284Z" fill="black"/>
<path d="M65.3222 43.6054L65.3069 0.765407L94.887 0.754904L94.8903 10.2749L75.1703 10.2819L75.1735 19.1219L91.1535 19.1162L91.1568 28.6362L75.1768 28.6419L75.1822 43.6019L65.3222 43.6054Z" fill="black"/>
<path d="M121.05 43.5856L121.035 0.74562L130.895 0.742119L130.907 34.0621L150.287 34.0552L150.29 43.5752L121.05 43.5856Z" fill="black"/>
<path d="M283.666 43.5279L283.651 0.687882L292.491 0.684744L309.84 25.8386L309.831 0.678586L319.691 0.675086L319.706 43.5151L310.866 43.5182L293.517 18.3644L293.526 43.5244L283.666 43.5279Z" fill="black"/>
<path d="M348.292 43.5049L348.277 0.664936L366.637 0.658419C374.457 0.655643 379.899 6.09371 379.902 12.5537C379.903 15.4777 378.611 17.5182 377.32 18.8106C376.572 19.5589 375.688 20.2392 374.804 20.7155C376.097 21.3271 377.185 22.0747 378.205 23.0263C379.906 24.6577 381.607 27.1051 381.608 30.9131C381.61 37.7131 375.832 43.4952 367.672 43.4981L348.292 43.5049ZM358.143 17.6614L365.623 17.6588C368.343 17.6578 370.383 15.6171 370.382 13.2371C370.381 10.8571 368.34 8.81781 365.62 8.81878L358.14 8.82143L358.143 17.6614ZM358.15 35.3414L366.65 35.3384C369.71 35.3373 372.089 32.9565 372.088 30.2365C372.087 27.5165 369.706 25.1373 366.646 25.1384L358.146 25.1414L358.15 35.3414Z" fill="black"/>
<path d="M418.688 26.8199L428.208 26.8166L423.443 12.5383L418.688 26.8199ZM403.054 43.4855L418.339 0.640061L428.539 0.636438L443.854 43.471L433.654 43.4746L430.931 35.3156L415.971 35.3209L413.254 43.4819L403.054 43.4855Z" fill="black"/>
<path d="M576.199 43.424L576.184 0.584016L585.024 0.580878L598.974 30.8359L612.904 0.57098L621.744 0.567843L621.759 43.4079L611.899 43.4113L611.891 21.9913L602.039 43.4148L595.919 43.417L586.051 22.0005L586.059 43.4205L576.199 43.424Z" fill="black"/>
<path d="M650.321 43.3977L650.306 0.557698L660.166 0.554198L660.178 33.8742L679.558 33.8673L679.561 43.3873L650.321 43.3977Z" fill="black"/>
<path d="M704.721 43.3784L704.706 0.538383L723.066 0.531862C730.886 0.529087 736.328 5.96717 736.33 12.4272C736.331 15.3512 735.04 17.3916 733.749 18.6841C733.001 19.4323 732.117 20.1127 731.233 20.589C732.526 21.2005 733.614 21.9481 734.634 22.8998C736.335 24.5312 738.036 26.9786 738.037 30.7866C738.039 37.5866 732.261 43.3686 724.101 43.3715L704.721 43.3784ZM714.572 17.5349L722.052 17.5322C724.772 17.5313 726.812 15.4905 726.811 13.1105C726.81 10.7305 724.769 8.69126 722.049 8.69223L714.569 8.69488L714.572 17.5349ZM714.579 35.2149L723.079 35.2119C726.139 35.2108 728.518 32.8299 728.517 30.1099C728.516 27.3899 726.135 25.0108 723.075 25.0119L714.575 25.0149L714.579 35.2149Z" fill="black"/>
<path d="M872.782 43.3187L872.767 0.478713L881.607 0.475571L898.956 25.6294L898.947 0.469413L908.807 0.465914L908.822 43.3059L899.982 43.3091L882.633 18.1552L882.642 43.3152L872.782 43.3187Z" fill="black"/>
<path d="M937.409 43.2958L937.394 0.455765L947.254 0.45226L947.26 16.7723L963.58 16.7665L963.574 0.446469L973.434 0.442973L973.449 43.283L963.589 43.2865L963.583 26.2865L947.263 26.2923L947.269 43.2923L937.409 43.2958Z" fill="black"/>
<path d="M1002.04 43.2728L1002.02 0.432819L1011.88 0.429315L1011.89 33.7493L1031.27 33.7424L1031.28 43.2624L1002.04 43.2728Z" fill="black"/>
<path d="M1164.65 43.2151L1164.64 0.375079L1173.48 0.371946L1190.83 25.5258L1190.82 0.365784L1200.68 0.362284L1200.69 43.2023L1191.85 43.2054L1174.5 18.0516L1174.51 43.2116L1164.65 43.2151Z" fill="black"/>
<path d="M1257.83 27.542L1268.03 28.2184C1266.06 36.3791 1258.86 43.5217 1248.32 43.5254C1236.69 43.5295 1227.23 34.0129 1227.23 21.7729C1227.23 9.53286 1236.67 0.00950627 1248.3 0.00537959C1258.43 0.00178129 1265.71 7.1392 1267.69 15.2985L1257.49 15.9821C1256.4 12.5825 1253.41 9.52357 1248.31 9.52538C1242.12 9.52758 1237.09 14.6974 1237.09 21.7694C1237.09 28.8414 1242.13 34.0076 1248.31 34.0054C1253.75 34.0035 1256.81 31.0104 1257.83 27.542Z" fill="black"/>
<path d="M1304.45 26.5054L1313.97 26.5021L1309.21 12.2238L1304.45 26.5054ZM1288.82 43.171L1304.11 0.325561L1314.31 0.321939L1329.62 43.1565L1319.42 43.1601L1316.7 35.0011L1301.74 35.0064L1299.02 43.1674L1288.82 43.171Z" fill="black"/>
<path d="M1364.96 26.484L1374.48 26.4806L1369.72 12.2023L1364.96 26.484ZM1349.33 43.1495L1364.61 0.304074L1374.81 0.300452L1390.13 43.135L1379.93 43.1386L1377.21 34.9796L1362.25 34.9849L1359.53 43.1459L1349.33 43.1495Z" fill="black"/>
<path d="M1414.26 43.1265L1414.24 0.286462L1443.82 0.275954L1443.83 9.79596L1424.11 9.80296L1424.11 18.643L1440.09 18.6373L1440.09 28.1573L1424.11 28.163L1424.12 43.123L1414.26 43.1265Z" fill="black"/>
</svg>
